<?xml version="1.0" encoding="UTF-8"?>
<svg version="1.1" xmlns="http://www.w3.org/2000/svg" width="464" height="464">
<path d="M0 0 C0.84101257 -0.00570007 1.68202515 -0.01140015 2.54852295 -0.01727295 C4.32709502 -0.02670692 6.10568444 -0.03325056 7.88427734 -0.03710938 C10.58592801 -0.04679098 13.28680973 -0.07781921 15.98828125 -0.109375 C17.72134968 -0.11590823 19.45442352 -0.12115744 21.1875 -0.125 C21.98673889 -0.1373468 22.78597778 -0.1496936 23.60943604 -0.16241455 C29.90518615 -0.13779014 35.47253757 0.94474953 40.56640625 4.9296875 C41.09621094 5.55617188 41.62601562 6.18265625 42.171875 6.828125 C42.71457031 7.43914062 43.25726563 8.05015625 43.81640625 8.6796875 C48.86520705 16.93671362 48.82927847 25.50772663 48.75048828 34.9140625 C48.73440739 37.1985241 48.75039639 39.48121714 48.76953125 41.765625 C48.79454757 54.33409911 47.36848531 62.10070208 38.359375 71.203125 C37.68922363 71.89809082 37.01907227 72.59305664 36.32861328 73.30908203 C34.21343215 75.48256528 32.07218585 77.62692699 29.921875 79.765625 C29.20966797 80.48169922 28.49746094 81.19777344 27.76367188 81.93554688 C23.74447646 85.9474413 19.62757504 89.77432644 15.32641602 93.48120117 C11.97457659 96.41536072 8.77334756 99.5076822 5.546875 102.578125 C0.15592603 107.67381661 -5.3025984 112.5270302 -11.11328125 117.140625 C-14.64256302 120.02078076 -17.94788289 123.12579037 -21.25390625 126.2578125 C-27.45420901 131.31141442 -33.03030658 132.32400552 -40.80493164 132.3449707 C-41.87658066 132.35018234 -41.87658066 132.35018234 -42.96987915 132.35549927 C-44.51891875 132.36283921 -46.06796875 132.36819396 -47.61702156 132.37178993 C-50.07780979 132.37898528 -52.53840205 132.39467721 -54.99913025 132.41313171 C-61.99507869 132.46543827 -68.99092102 132.5135 -75.98706055 132.52905273 C-80.2712961 132.5391993 -84.55503901 132.56869442 -88.8390789 132.61037254 C-90.4627349 132.62259675 -92.08646075 132.62781967 -93.71016121 132.62557411 C-107.25573468 132.6114579 -118.59556619 134.29513327 -128.640625 144.203125 C-135.38911269 152.14773414 -138.29315407 161.10309813 -137.9140625 171.484375 C-136.96073579 180.96316631 -133.11167152 188.21571314 -126.640625 195.203125 C-116.49746809 203.34412533 -105.29581744 204.66282701 -92.671875 204.6015625 C-91.35578247 204.60443268 -90.03968994 204.60730286 -88.68371582 204.61026001 C-85.91354664 204.61465305 -83.14367 204.60835112 -80.37353516 204.59423828 C-76.85013786 204.57714774 -73.32742649 204.58700536 -69.80405426 204.60495567 C-66.40577514 204.61849793 -63.0076735 204.60897362 -59.609375 204.6015625 C-57.73239929 204.61067154 -57.73239929 204.61067154 -55.81750488 204.6199646 C-47.42839052 204.55320037 -38.99330021 204.11980523 -32.140625 198.765625 C-27.6045313 194.11612896 -27.34092451 190.38286691 -27.296875 184.03515625 C-27.2749408 182.84378304 -27.2749408 182.84378304 -27.25256348 181.62834167 C-27.20615613 179.09082067 -27.17194037 176.55337434 -27.140625 174.015625 C-27.09913602 170.68852783 -27.04525742 167.36194877 -26.984375 164.03515625 C-26.9790979 163.2848262 -26.9738208 162.53449615 -26.96838379 161.76142883 C-26.83079479 154.30285506 -26.22211223 146.98012309 -20.953125 141.328125 C-20.30988281 140.60882813 -19.66664063 139.88953125 -19.00390625 139.1484375 C-13.16145555 134.33927973 -7.56258671 133.7439092 -0.26953125 133.76953125 C0.61162857 133.7642894 1.49278839 133.75904755 2.40065002 133.75364685 C4.25545198 133.74725272 6.11029462 133.74852967 7.96508789 133.75708008 C10.78541043 133.76559041 13.60370515 133.73679252 16.42382812 133.70507812 C18.2343744 133.70346572 20.04492422 133.70404439 21.85546875 133.70703125 C22.68904404 133.69579727 23.52261932 133.68456329 24.38145447 133.67298889 C31.21247084 133.75332639 36.33233835 135.69289949 41.6015625 140.0625 C42.14039063 140.68640625 42.67921875 141.3103125 43.234375 141.953125 C43.78867187 142.56671875 44.34296875 143.1803125 44.9140625 143.8125 C48.27190816 149.36655823 48.66874526 155.75202374 48.66015625 162.10546875 C48.66444138 162.82746964 48.6687265 163.54947052 48.67314148 164.29335022 C48.67884077 165.80843058 48.67941786 167.32353827 48.67504883 168.83862305 C48.67188712 171.13183086 48.69540763 173.4237477 48.72070312 175.71679688 C48.76516415 185.81638041 48.46542983 195.06358495 41.10083008 202.7121582 C32.49308319 210.08177972 21.44723011 208.7402649 10.796875 208.703125 C7.31586316 208.69101048 3.8363505 208.70491612 0.35546875 208.734375 C-0.42808487 208.72305542 -1.21163849 208.71173584 -2.01893616 208.70007324 C-8.20967851 208.75618106 -13.58133074 210.31048621 -18.17140198 214.6505127 C-23.46219371 220.76151378 -24.61278946 226.22933396 -24.81640625 234.171875 C-24.84025391 235.07292969 -24.86410156 235.97398437 -24.88867188 236.90234375 C-24.93163527 238.76929845 -24.96288896 240.63655942 -24.98242188 242.50390625 C-25.20571426 249.76350517 -26.62142083 253.26778761 -31.890625 258.390625 C-38.24572604 262.57921432 -44.0545284 263.64913349 -51.48071289 263.59130859 C-52.32585449 263.59656555 -53.17099609 263.60182251 -54.04174805 263.60723877 C-56.81578468 263.62036237 -59.58923947 263.6117223 -62.36328125 263.6015625 C-64.31131601 263.60358674 -66.25935002 263.60650109 -68.2073822 263.61026001 C-72.28668444 263.61467418 -76.36578916 263.60828644 -80.44506836 263.59423828 C-85.63376571 263.57722682 -90.82199465 263.58694223 -96.01067448 263.60495567 C-100.03540969 263.61588644 -104.06003715 263.61230361 -108.08477592 263.6045723 C-109.99543757 263.60259169 -111.90610948 263.60495298 -113.81675911 263.61201096 C-143.07798761 263.69632975 -167.63519335 255.58133697 -189.265625 235.078125 C-207.56185686 216.14825741 -216.06860437 191.22408834 -215.78515625 165.12109375 C-214.86795328 140.25745647 -205.07282389 118.66157721 -187.640625 101.203125 C-187.0321875 100.50058594 -186.42375 99.79804688 -185.796875 99.07421875 C-173.09027493 84.77929367 -151.22946604 75.49502821 -132.43638611 74.03146362 C-127.472282 73.7999757 -122.50793284 73.78362644 -117.53920746 73.79243469 C-114.74590457 73.79698345 -111.95321196 73.78271976 -109.15997314 73.76403809 C-102.2325332 73.7214188 -95.30511152 73.71002368 -88.37756348 73.69781494 C-82.49554484 73.68623945 -76.61381044 73.66256716 -70.73191071 73.62312317 C-67.99666449 73.60966608 -65.26181593 73.61370062 -62.52655029 73.61853027 C-46.51060061 73.58088616 -46.51060061 73.58088616 -32.640625 66.203125 C-25.81612001 58.43415727 -26.92569444 49.49678055 -26.953125 39.703125 C-26.94417945 37.19982094 -26.92803937 34.69690736 -26.9016571 32.19372559 C-26.88695088 30.64439385 -26.88281229 29.09490977 -26.89143372 27.54553223 C-26.85171014 19.94047692 -25.61683178 13.22695426 -20.640625 7.203125 C-13.78917555 1.18343587 -9.06990369 0.04774467 0 0 Z " fill="#0B2743" transform="translate(315.640625,60.796875)"/>
<path d="M0 0 C0.84640045 -0.00983917 1.6928009 -0.01967834 2.56484985 -0.02981567 C45.10534918 -0.42198583 84.09397909 7.02261179 121.8828125 27.23828125 C123.03910156 27.851875 124.19539063 28.46546875 125.38671875 29.09765625 C163.73358249 50.21242536 195.31833498 82.73512106 215.8828125 121.23828125 C216.24955078 121.91810059 216.61628906 122.59791992 216.99414062 123.29833984 C245.41923608 176.44489262 251.36673493 239.65779594 234.3605957 297.42382812 C224.91329022 328.2303841 210.15791399 356.89542168 188.8828125 381.23828125 C188.21507812 382.01558594 187.54734375 382.79289062 186.859375 383.59375 C175.94328493 396.03159984 164.29045714 407.51800869 150.8828125 417.23828125 C150.25262207 417.69686523 149.62243164 418.15544922 148.97314453 418.62792969 C139.34569122 425.57350093 129.41544259 431.76290202 118.8828125 437.23828125 C117.71371338 437.84736328 117.71371338 437.84736328 116.52099609 438.46875 C61.25691898 466.87092444 -2.4964263 470.23341576 -61.41259766 451.72680664 C-85.15081803 443.96834374 -107.27955703 432.43251317 -127.1171875 417.23828125 C-128.01566406 416.55121094 -128.91414063 415.86414063 -129.83984375 415.15625 C-135.84155189 410.45321132 -141.5809679 405.47976438 -147.1171875 400.23828125 C-147.74044922 399.64901855 -148.36371094 399.05975586 -149.00585938 398.45263672 C-159.50028743 388.44718746 -168.7109206 378.04653185 -177.1171875 366.23828125 C-177.75914062 365.36333008 -177.75914062 365.36333008 -178.4140625 364.47070312 C-201.72578916 332.63839283 -214.7656173 294.17703296 -219.1171875 255.23828125 C-219.24867188 254.1090625 -219.38015625 252.97984375 -219.515625 251.81640625 C-225.25337669 191.95769941 -205.6594004 130.99678816 -167.90234375 84.546875 C-163.20445889 78.89773104 -158.20519301 73.53538287 -153.1171875 68.23828125 C-152.26125 67.34109375 -151.4053125 66.44390625 -150.5234375 65.51953125 C-136.92466972 51.57649087 -120.8603059 39.89062035 -103.94824219 30.27929688 C-102.19754548 29.28396744 -100.45784194 28.26937603 -98.71875 27.25390625 C-69.32351527 10.73972943 -33.84425384 0.3263047 0 0 Z M-95.1171875 31.23828125 C-95.78057129 31.59003418 -96.44395508 31.94178711 -97.12744141 32.30419922 C-116.57233079 42.65712549 -133.15479627 56.13342017 -149.1171875 71.23828125 C-149.7978125 71.87636719 -150.4784375 72.51445313 -151.1796875 73.171875 C-156.30660063 78.12077031 -160.69051352 83.66665205 -165.1171875 89.23828125 C-165.88933594 90.181875 -166.66148437 91.12546875 -167.45703125 92.09765625 C-184.64195626 113.59970181 -196.87654779 138.05831972 -205.1171875 164.23828125 C-205.35276367 164.97046875 -205.58833984 165.70265625 -205.83105469 166.45703125 C-211.28384025 183.63213899 -214.64022986 202.21757746 -215.1171875 220.23828125 C-215.13765137 221.0060791 -215.15811523 221.77387695 -215.17919922 222.56494141 C-216.3576967 274.40909092 -201.83692965 325.77764539 -170.1171875 367.23828125 C-169.40949219 368.17671875 -168.70179688 369.11515625 -167.97265625 370.08203125 C-162.7433928 376.81297728 -156.97795412 383.05956061 -151.1171875 389.23828125 C-150.59382813 389.79563965 -150.07046875 390.35299805 -149.53125 390.92724609 C-140.50884205 400.48117748 -130.80903448 408.60951755 -120.1171875 416.23828125 C-119.48167969 416.69187012 -118.84617187 417.14545898 -118.19140625 417.61279297 C-68.99469919 452.32236445 -8.29139808 464.80255073 50.8828125 455.23828125 C87.93673941 448.77669751 123.81047108 433.23506892 152.8828125 409.23828125 C153.43356445 408.78904297 153.98431641 408.33980469 154.55175781 407.87695312 C178.63190267 388.14632731 198.06093382 364.62505666 212.8828125 337.23828125 C213.44863037 336.19293213 213.44863037 336.19293213 214.02587891 335.12646484 C241.81267238 282.67241822 245.74250594 219.12379057 228.45703125 162.76879883 C218.53312355 132.17110693 202.7881452 104.15135001 180.9453125 80.48828125 C179.13224156 78.51038567 177.41242236 76.48631308 175.6953125 74.42578125 C159.86884876 56.44116337 139.88860889 42.47977335 118.8828125 31.23828125 C118.20831055 30.87154297 117.53380859 30.50480469 116.83886719 30.12695312 C88.78227229 14.97555479 55.76389014 5.30829411 23.765625 5 C22.91904327 4.99020615 22.07246155 4.98041229 21.20022583 4.97032166 C-20.20696501 4.59031551 -58.33447614 11.42647394 -95.1171875 31.23828125 Z " fill="#0E2743" transform="translate(220.1171875,0.76171875)"/>
<path d="M0 0 C5.79205036 3.25919232 8.50322745 7.82218235 10.5625 14 C11.42404512 22.77545249 10.70654236 29.68559456 5.5625 37 C0.83669238 41.72580762 -4.01654105 43.30066224 -10.625 43.4375 C-17.17361348 43.3114225 -22.22083517 42.06064413 -27.4375 38 C-33.57050797 30.71970878 -34.20658551 23.27297392 -33.4375 14 C-31.77906181 7.80583326 -27.74077556 3.46201357 -22.4375 0 C-15.25834092 -3.44741798 -7.23382905 -3.21623836 0 0 Z M-19.4375 14 C-21.18077413 16.93187013 -21.4518242 18.64905716 -21.3125 22.0625 C-20.30886778 25.43183675 -19.13224555 26.79520819 -16.4375 29 C-13.61748673 30.41000664 -11.56742745 30.24548451 -8.4375 30 C-5.28053591 28.63676551 -3.82364409 27.64942415 -2.0625 24.6875 C-1.28725642 21.35395262 -1.46031387 19.28055344 -2.4375 16 C-5.15157034 12.76062573 -6.99392118 11.12831812 -11.25 10.75 C-14.90432966 11.03661409 -16.59360986 11.7090885 -19.4375 14 Z " fill="#0B2743" transform="translate(355.4375,351)"/>
<path d="M0 0 C5.79205036 3.25919232 8.50322745 7.82218235 10.5625 14 C11.42404512 22.77545249 10.70654236 29.68559456 5.5625 37 C0.83669238 41.72580762 -4.01654105 43.30066224 -10.625 43.4375 C-17.17361348 43.3114225 -22.22083517 42.06064413 -27.4375 38 C-33.57050797 30.71970878 -34.20658551 23.27297392 -33.4375 14 C-31.77906181 7.80583326 -27.74077556 3.46201357 -22.4375 0 C-15.25834092 -3.44741798 -7.23382905 -3.21623836 0 0 Z M-19.4375 14 C-21.18077413 16.93187013 -21.4518242 18.64905716 -21.3125 22.0625 C-20.30886778 25.43183675 -19.13224555 26.79520819 -16.4375 29 C-13.61748673 30.41000664 -11.56742745 30.24548451 -8.4375 30 C-5.28053591 28.63676551 -3.82364409 27.64942415 -2.0625 24.6875 C-1.28725642 21.35395262 -1.46031387 19.28055344 -2.4375 16 C-5.15157034 12.76062573 -6.99392118 11.12831812 -11.25 10.75 C-14.90432966 11.03661409 -16.59360986 11.7090885 -19.4375 14 Z " fill="#0B2743" transform="translate(176.4375,351)"/>
<path d="M0 0 C1.25361328 -0.020625 2.50722656 -0.04125 3.79882812 -0.0625 C4.99830078 -0.06765625 6.19777344 -0.0728125 7.43359375 -0.078125 C9.08766235 -0.09214355 9.08766235 -0.09214355 10.77514648 -0.10644531 C13.5625 0.25 13.5625 0.25 15.42211914 1.58300781 C17.20183207 4.18456633 16.94496673 6.19026616 16.5625 9.25 C15.01743534 11.28667615 13.84103844 12.11073078 11.5625 13.25 C8.67879667 13.32194869 5.82010336 13.34291708 2.9375 13.3125 C2.13570313 13.30798828 1.33390625 13.30347656 0.5078125 13.29882812 C-1.47399006 13.28703168 -3.45575433 13.26909605 -5.4375 13.25 C-5.4375 14.24 -5.4375 15.23 -5.4375 16.25 C-4.61765625 16.22679687 -3.7978125 16.20359375 -2.953125 16.1796875 C-1.33664063 16.15261719 -1.33664063 16.15261719 0.3125 16.125 C1.91351563 16.09019531 1.91351563 16.09019531 3.546875 16.0546875 C6.51272828 16.24677644 8.11454664 16.61421808 10.5625 18.25 C11.96185013 21.04870027 11.81515405 23.15498792 11.5625 26.25 C10.49609375 27.9296875 10.49609375 27.9296875 8.5625 29.25 C5.20703125 29.54296875 5.20703125 29.54296875 1.375 29.4375 C-0.53345703 29.39689453 -0.53345703 29.39689453 -2.48046875 29.35546875 C-3.94419922 29.30326172 -3.94419922 29.30326172 -5.4375 29.25 C-5.4375 30.24 -5.4375 31.23 -5.4375 32.25 C-4.25671875 32.22679687 -3.0759375 32.20359375 -1.859375 32.1796875 C-0.30208967 32.16092503 1.25520252 32.14272534 2.8125 32.125 C3.58980469 32.10824219 4.36710937 32.09148437 5.16796875 32.07421875 C12.52542928 32.01133447 12.52542928 32.01133447 15.5625 34.25 C16.96185013 37.04870027 16.81515405 39.15498792 16.5625 42.25 C15.45507812 43.91210938 15.45507812 43.91210938 13.5625 45.25 C9.42481145 45.83797293 5.28705075 45.76506838 1.11083984 45.75097656 C-0.9314416 45.75000289 -2.96997889 45.79164813 -5.01171875 45.8359375 C-6.29691406 45.83851563 -7.58210937 45.84109375 -8.90625 45.84375 C-10.67645508 45.85438477 -10.67645508 45.85438477 -12.48242188 45.86523438 C-15.4375 45.25 -15.4375 45.25 -17.32080078 43.19726562 C-18.69160296 39.57935485 -18.86892827 36.31489289 -18.8359375 32.5 C-18.83880768 31.76426758 -18.84167786 31.02853516 -18.84463501 30.27050781 C-18.84666926 28.72069526 -18.84118415 27.17085666 -18.82861328 25.62109375 C-18.8125491 23.25722507 -18.8284822 20.89506589 -18.84765625 18.53125 C-18.8456737 17.02082958 -18.84182979 15.51041022 -18.8359375 14 C-18.84201019 13.2977832 -18.84808289 12.59556641 -18.8543396 11.87207031 C-18.79216987 7.5054907 -18.11356845 4.72554084 -15.4375 1.25 C-10.97973509 -0.97888246 -4.8952323 0.02007271 0 0 Z " fill="#0B2743" transform="translate(256.4375,348.75)"/>
<path d="M0 0 C0.80373047 -0.020625 1.60746094 -0.04125 2.43554688 -0.0625 C8.36301354 -0.10127329 12.58638313 0.79183479 17.140625 4.8984375 C17.60984375 5.46820313 18.0790625 6.03796875 18.5625 6.625 C19.04203125 7.18960937 19.5215625 7.75421875 20.015625 8.3359375 C24.51831858 14.98147922 23.96630609 22.5596059 23.3125 30.25 C21.71977064 36.23178471 18.34694907 39.82657463 13.3125 43.25 C8.1911908 45.42846735 3.53261031 45.5845569 -1.9375 45.5625 C-2.7521875 45.57861328 -3.566875 45.59472656 -4.40625 45.61132812 C-6.765625 45.61328125 -6.765625 45.61328125 -10.6875 45.25 C-13.17656363 41.51640456 -12.99349206 38.58174987 -12.98828125 34.2578125 C-12.99256638 33.47485809 -12.9968515 32.69190369 -13.00126648 31.88522339 C-13.00700706 30.22931891 -13.00751203 28.57338921 -13.00317383 26.91748047 C-13.00002017 24.3911603 -13.02345305 21.8660186 -13.04882812 19.33984375 C-13.05110187 17.72916814 -13.05180426 16.11848939 -13.05078125 14.5078125 C-13.059991 13.75557404 -13.06920074 13.00333557 -13.07868958 12.228302 C-12.98771941 1.84887774 -9.32551289 0.05842138 0 0 Z M0.3125 13.25 C0.3125 19.52 0.3125 25.79 0.3125 32.25 C6.87096109 31.9850467 6.87096109 31.9850467 9.22265625 29.5 C11.15699276 25.50653107 10.95200305 21.57562738 10.3125 17.25 C8.89205419 14.49390705 8.89205419 14.49390705 6.3125 13.25 C4.3325 13.25 2.3525 13.25 0.3125 13.25 Z " fill="#0B2743" transform="translate(207.6875,348.75)"/>
<path d="M0 0 C2.44276032 1.45171969 4.2862144 2.76027046 6.15234375 4.90234375 C6.91205974 8.63761402 6.9211008 10.50049265 5.08984375 13.83984375 C2.06596899 15.49809765 -0.47152608 15.20378394 -3.84765625 14.90234375 C-4.83765625 14.24234375 -5.82765625 13.58234375 -6.84765625 12.90234375 C-10.8838743 12.28813666 -12.36876666 12.55879252 -15.72265625 14.96484375 C-18.08874532 17.78760437 -18.08874532 17.78760437 -18.47265625 21.40234375 C-17.67649386 25.86085311 -16.53952167 27.31018292 -12.84765625 29.90234375 C-9.34765625 30.65234375 -9.34765625 30.65234375 -5.84765625 29.90234375 C-5.00203125 29.22171875 -4.15640625 28.54109375 -3.28515625 27.83984375 C-0.84765625 25.90234375 -0.84765625 25.90234375 2.33984375 25.96484375 C5.15234375 26.90234375 5.15234375 26.90234375 7.15234375 29.90234375 C7.58984375 32.77734375 7.58984375 32.77734375 7.15234375 35.90234375 C3.62374994 40.23747329 -0.27300897 43.53642077 -5.8984375 44.3359375 C-13.85423305 44.3454654 -19.67243575 43.84405079 -25.59375 38.25390625 C-31.2973509 31.98951965 -32.31711595 26.51286096 -32.15625 18.12890625 C-31.46581122 10.90988815 -28.18902977 6.66617604 -22.7265625 2.12890625 C-16.03937188 -2.23653628 -7.42937034 -2.86372162 0 0 Z " fill="#0B2743" transform="translate(128.84765625,350.09765625)"/>
<path d="M0 0 C4.21154163 4.25769551 6.15200943 10.49002532 8.203125 15.99609375 C8.83294551 17.96487 8.83294551 17.96487 10 19 C10.48210937 17.79601562 10.96421875 16.59203125 11.4609375 15.3515625 C12.09869196 13.77593382 12.73672741 12.20041886 13.375 10.625 C13.69210937 9.8309375 14.00921875 9.036875 14.3359375 8.21875 C14.6453125 7.45820313 14.9546875 6.69765625 15.2734375 5.9140625 C15.69761963 4.8614624 15.69761963 4.8614624 16.13037109 3.78759766 C17 2 17 2 19 0 C25.00458716 -0.54587156 25.00458716 -0.54587156 27.9375 1.0625 C29.80890627 4.47506438 29.48951364 8.22936755 28.46612549 11.93109131 C27.70564295 14.01191964 26.87575578 16.04760397 26.0078125 18.0859375 C25.54881058 19.19952133 25.54881058 19.19952133 25.08053589 20.33560181 C24.43569617 21.89268083 23.78488702 23.44729984 23.12841797 24.99951172 C22.12157496 27.38310843 21.13566416 29.77458549 20.15234375 32.16796875 C19.52204146 33.68279492 18.89057222 35.19713618 18.2578125 36.7109375 C17.96190216 37.42752533 17.66599182 38.14411316 17.3611145 38.88241577 C15.23179395 43.88410303 15.23179395 43.88410303 13 45 C9.625 45.4375 9.625 45.4375 6 45 C1.55323685 39.34087066 -0.79650573 32.68284479 -3.42871094 26.05957031 C-4.24978759 24.00053267 -5.08903614 21.94954834 -5.9296875 19.8984375 C-6.45945106 18.57857308 -6.98813421 17.25827439 -7.515625 15.9375 C-7.99290039 14.75027344 -8.47017578 13.56304687 -8.96191406 12.33984375 C-10.00351083 8.98870457 -10.28765829 6.48231266 -10 3 C-7.71705257 -1.02873076 -4.21017391 -0.79848126 0 0 Z " fill="#0B2743" transform="translate(288,349)"/>
</svg>
